<svg width="66" height="65" viewBox="0 0 66 65" fill="none" xmlns="http://www.w3.org/2000/svg">
<path d="M43.0046 28.7923V28.8245M10.2497 20.3395C8.78779 19.2528 7.665 17.7963 7.00542 16.131C6.34585 14.4656 6.17519 12.6564 6.5123 10.9031C6.84941 9.14985 7.68116 7.52088 8.91563 6.19623C10.1501 4.87159 11.7392 3.90285 13.5073 3.39709C15.2754 2.89133 17.1537 2.86825 18.9345 3.33039C20.7154 3.79254 22.3294 4.72191 23.5983 6.01579C24.8672 7.30967 25.7414 8.91768 26.1245 10.6621C26.5076 12.4065 26.3845 14.2194 25.7689 15.9004" stroke="#24262E" stroke-width="6" stroke-linecap="round" stroke-linejoin="round"/>
<path d="M46.3376 6.22607V18.4861C50.4625 20.7949 53.6031 24.4485 55.1971 28.7925H59.6668C60.5509 28.7925 61.3987 29.1322 62.0237 29.7368C62.6488 30.3413 63 31.1613 63 32.0163V38.4639C63 39.3189 62.6488 40.1388 62.0237 40.7434C61.3987 41.348 60.5509 41.6876 59.6668 41.6876H55.1937C54.0738 44.7502 52.1706 47.4904 49.6674 49.66V56.1946C49.6674 57.4771 49.1406 58.7071 48.203 59.614C47.2654 60.5208 45.9937 61.0303 44.6676 61.0303C43.3416 61.0303 42.0699 60.5208 41.1323 59.614C40.1947 58.7071 39.6679 57.4771 39.6679 56.1946V54.3152C38.5665 54.4942 37.4516 54.5837 36.3348 54.5828H23.0021C21.8853 54.5837 20.7704 54.4942 19.669 54.3152V56.1946C19.669 57.4771 19.1422 58.7071 18.2046 59.614C17.267 60.5208 15.9953 61.0303 14.6693 61.0303C13.3433 61.0303 12.0716 60.5208 11.1339 59.614C10.1963 58.7071 9.66953 57.4771 9.66953 56.1946V49.66C6.64957 47.0487 4.52073 43.6119 3.5648 39.8045C2.60888 35.9972 2.87093 31.9988 4.31629 28.3387C5.76165 24.6786 8.32215 21.5293 11.6589 19.3076C14.9956 17.086 18.9512 15.8968 23.0021 15.8974H31.335L46.3376 6.22607Z" stroke="#24262E" stroke-width="6" stroke-linecap="round" stroke-linejoin="round"/>
</svg>
