<svg width="80" height="80" viewBox="0 0 80 80" fill="none" xmlns="http://www.w3.org/2000/svg">
<path d="M69.8101 56.1168C67.9831 45.2119 62.7619 35.1615 54.8901 27.3968C53.1667 25.7202 52.3067 24.8835 50.4034 24.1102C48.5001 23.3335 46.8634 23.3335 43.5934 23.3335H36.4067C33.1367 23.3335 31.5001 23.3335 29.5967 24.1102C27.6967 24.8835 26.8301 25.7202 25.1101 27.3968C17.2382 35.1615 12.0171 45.2119 10.1901 56.1168C8.56673 65.9102 17.6001 73.3335 27.6934 73.3335H52.3067C62.4034 73.3335 71.4401 65.9102 69.8067 56.1168" stroke="#24262E" stroke-width="6" stroke-linecap="round" stroke-linejoin="round"/>
<path d="M45.4234 43.0634C44.7034 40.4001 41.0334 38.0001 36.63 39.7968C32.2267 41.5934 31.53 47.3701 38.1867 47.9867C41.2 48.2634 43.16 47.6634 44.9567 49.3601C46.7567 51.0534 47.09 55.7701 42.4934 57.0401C37.9034 58.3101 33.3534 56.3268 32.86 53.5068M39.4734 36.6401V39.1768M39.4734 57.4301V59.9768M24.19 14.8101C23.5 13.8101 22.5034 12.4501 24.5634 12.1434C26.68 11.8234 28.8767 13.2701 31.03 13.2434C32.9734 13.2134 33.9634 12.3501 35.03 11.1167C36.15 9.82008 37.8834 6.66675 40 6.66675C42.1167 6.66675 43.85 9.82008 44.97 11.1167C46.0367 12.3501 47.0267 13.2167 48.97 13.2401C51.1234 13.2734 53.32 11.8234 55.4367 12.1401C57.4967 12.4501 56.5 13.8067 55.81 14.8067L52.7034 19.3367C51.37 21.2701 50.7067 22.2367 49.3134 22.7867C47.92 23.3367 46.1234 23.3334 42.5267 23.3334H37.4734C33.8734 23.3334 32.0767 23.3334 30.6867 22.7867C29.2967 22.2401 28.63 21.2667 27.2967 19.3334L24.19 14.8101Z" stroke="#24262E" stroke-width="6" stroke-linecap="round" stroke-linejoin="round"/>
</svg>
