<svg width="80" height="80" viewBox="0 0 80 80" fill="none" xmlns="http://www.w3.org/2000/svg">
<path d="M40 41.6667C36.9058 41.6667 33.9384 42.8959 31.7505 45.0838C29.5625 47.2718 28.3334 50.2392 28.3334 53.3334C28.3334 56.4276 29.5625 59.3951 31.7505 61.583C33.9384 63.7709 36.9058 65.0001 40 65.0001C43.0942 65.0001 46.0617 63.7709 48.2496 61.583C50.4375 59.3951 51.6667 56.4276 51.6667 53.3334C51.6667 50.2392 50.4375 47.2718 48.2496 45.0838C46.0617 42.8959 43.0942 41.6667 40 41.6667ZM35 53.3334C35 52.0073 35.5268 50.7356 36.4645 49.7979C37.4022 48.8602 38.674 48.3334 40 48.3334C41.3261 48.3334 42.5979 48.8602 43.5356 49.7979C44.4733 50.7356 45 52.0073 45 53.3334C45 54.6595 44.4733 55.9313 43.5356 56.8689C42.5979 57.8066 41.3261 58.3334 40 58.3334C38.674 58.3334 37.4022 57.8066 36.4645 56.8689C35.5268 55.9313 35 54.6595 35 53.3334Z" fill="#24262E"/>
<path d="M58.42 17.0534L47.8233 2.19678L8.86 33.3234L6.7 33.3001V33.3334H5V73.3335H75V33.3334H71.7933L65.4133 14.6701L58.42 17.0534ZM64.75 33.3334H31.3233L56.22 24.8468L61.2933 23.2234L64.75 33.3334ZM51.8333 19.3001L26.1333 28.0601L46.4867 11.8001L51.8333 19.3001ZM11.6667 60.5634V46.0968C13.0739 45.6001 14.3522 44.7948 15.4077 43.7398C16.4632 42.6849 17.2692 41.4071 17.7667 40.0001H62.2333C62.7303 41.4077 63.5362 42.6862 64.5917 43.7417C65.6473 44.7973 66.9257 45.6031 68.3333 46.1001V60.5668C66.9257 61.0638 65.6473 61.8696 64.5917 62.9252C63.5362 63.9807 62.7303 65.2592 62.2333 66.6668H17.7733C17.2739 65.2591 16.4665 63.9806 15.4101 62.9247C14.3536 61.8688 13.0747 61.0621 11.6667 60.5634Z" fill="#24262E"/>
</svg>
