<svg width="60" height="84" viewBox="0 0 60 84" fill="none" xmlns="http://www.w3.org/2000/svg">
<path d="M17.5001 14.9168C17.5001 14.3643 17.7196 13.8344 18.1103 13.4437C18.501 13.053 19.0309 12.8335 19.5834 12.8335H40.4167C40.9693 12.8335 41.4992 13.053 41.8899 13.4437C42.2806 13.8344 42.5001 14.3643 42.5001 14.9168C42.5001 15.4694 42.2806 15.9993 41.8899 16.39C41.4992 16.7807 40.9693 17.0002 40.4167 17.0002H19.5834C19.0309 17.0002 18.501 16.7807 18.1103 16.39C17.7196 15.9993 17.5001 15.4694 17.5001 14.9168ZM11.2501 25.3335C10.6975 25.3335 10.1676 25.553 9.77694 25.9437C9.38624 26.3344 9.16675 26.8643 9.16675 27.4168C9.16675 27.9694 9.38624 28.4993 9.77694 28.89C10.1676 29.2807 10.6975 29.5002 11.2501 29.5002H48.7501C49.3026 29.5002 49.8325 29.2807 50.2232 28.89C50.6139 28.4993 50.8334 27.9694 50.8334 27.4168C50.8334 26.8643 50.6139 26.3344 50.2232 25.9437C49.8325 25.553 49.3026 25.3335 48.7501 25.3335H11.2501ZM9.16675 35.7502C9.16675 35.1976 9.38624 34.6677 9.77694 34.277C10.1676 33.8863 10.6975 33.6668 11.2501 33.6668H48.7501C49.3026 33.6668 49.8325 33.8863 50.2232 34.277C50.6139 34.6677 50.8334 35.1976 50.8334 35.7502C50.8334 36.3027 50.6139 36.8326 50.2232 37.2233C49.8325 37.614 49.3026 37.8335 48.7501 37.8335H11.2501C10.6975 37.8335 10.1676 37.614 9.77694 37.2233C9.38624 36.8326 9.16675 36.3027 9.16675 35.7502ZM11.2501 42.0002C10.6975 42.0002 10.1676 42.2197 9.77694 42.6104C9.38624 43.0011 9.16675 43.531 9.16675 44.0835C9.16675 44.636 9.38624 45.1659 9.77694 45.5566C10.1676 45.9473 10.6975 46.1668 11.2501 46.1668H48.7501C49.3026 46.1668 49.8325 45.9473 50.2232 45.5566C50.6139 45.1659 50.8334 44.636 50.8334 44.0835C50.8334 43.531 50.6139 43.0011 50.2232 42.6104C49.8325 42.2197 49.3026 42.0002 48.7501 42.0002H11.2501Z" fill="#24262E"/>
<mask id="path-2-inside-1_559_2500" fill="white">
<path fill-rule="evenodd" clip-rule="evenodd" d="M59.1667 67.0002C59.1667 69.2103 58.2887 71.3299 56.7259 72.8927C55.1631 74.4555 53.0435 75.3335 50.8334 75.3335H44.5834V83.6668L38.3334 80.5418L32.0834 83.6668V75.3335H9.16671C6.95657 75.3335 4.83695 74.4555 3.27415 72.8927C1.71135 71.3299 0.833374 69.2103 0.833374 67.0002V8.66683C0.833374 6.45669 1.71135 4.33708 3.27415 2.77427C4.83695 1.21147 6.95657 0.333496 9.16671 0.333496H50.8334C53.0435 0.333496 55.1631 1.21147 56.7259 2.77427C58.2887 4.33708 59.1667 6.45669 59.1667 8.66683V67.0002ZM9.16671 4.50016C8.06164 4.50016 7.00183 4.93915 6.22043 5.72055C5.43903 6.50195 5.00004 7.56176 5.00004 8.66683V67.0002C5.00004 68.1052 5.43903 69.165 6.22043 69.9464C7.00183 70.7278 8.06164 71.1668 9.16671 71.1668H32.0834V66.2627C31.0226 65.0599 30.3314 63.5765 30.0928 61.9907C29.8542 60.4048 30.0782 58.7837 30.7381 57.322C31.3979 55.8603 32.4655 54.6201 33.8127 53.7501C35.16 52.8801 36.7296 52.4173 38.3334 52.4173C39.9371 52.4173 41.5068 52.8801 42.854 53.7501C44.2013 54.6201 45.2689 55.8603 45.9287 57.322C46.5885 58.7837 46.8126 60.4048 46.5739 61.9907C46.3353 63.5765 45.6441 65.0599 44.5834 66.2627V71.1668H50.8334C51.9384 71.1668 52.9983 70.7278 53.7797 69.9464C54.5611 69.165 55 68.1052 55 67.0002V8.66683C55 7.56176 54.5611 6.50195 53.7797 5.72055C52.9983 4.93915 51.9384 4.50016 50.8334 4.50016H9.16671ZM40.4167 68.821C39.0502 69.1738 37.6165 69.1738 36.25 68.821V76.9252L38.3334 75.8835L40.4167 76.9252V68.821ZM38.3334 64.9168C39.4384 64.9168 40.4983 64.4778 41.2797 63.6964C42.0611 62.915 42.5 61.8552 42.5 60.7502C42.5 59.6451 42.0611 58.5853 41.2797 57.8039C40.4983 57.0225 39.4384 56.5835 38.3334 56.5835C37.2283 56.5835 36.1685 57.0225 35.3871 57.8039C34.6057 58.5853 34.1667 59.6451 34.1667 60.7502C34.1667 61.8552 34.6057 62.915 35.3871 63.6964C36.1685 64.4778 37.2283 64.9168 38.3334 64.9168Z"/>
</mask>
<path fill-rule="evenodd" clip-rule="evenodd" d="M59.1667 67.0002C59.1667 69.2103 58.2887 71.3299 56.7259 72.8927C55.1631 74.4555 53.0435 75.3335 50.8334 75.3335H44.5834V83.6668L38.3334 80.5418L32.0834 83.6668V75.3335H9.16671C6.95657 75.3335 4.83695 74.4555 3.27415 72.8927C1.71135 71.3299 0.833374 69.2103 0.833374 67.0002V8.66683C0.833374 6.45669 1.71135 4.33708 3.27415 2.77427C4.83695 1.21147 6.95657 0.333496 9.16671 0.333496H50.8334C53.0435 0.333496 55.1631 1.21147 56.7259 2.77427C58.2887 4.33708 59.1667 6.45669 59.1667 8.66683V67.0002ZM9.16671 4.50016C8.06164 4.50016 7.00183 4.93915 6.22043 5.72055C5.43903 6.50195 5.00004 7.56176 5.00004 8.66683V67.0002C5.00004 68.1052 5.43903 69.165 6.22043 69.9464C7.00183 70.7278 8.06164 71.1668 9.16671 71.1668H32.0834V66.2627C31.0226 65.0599 30.3314 63.5765 30.0928 61.9907C29.8542 60.4048 30.0782 58.7837 30.7381 57.322C31.3979 55.8603 32.4655 54.6201 33.8127 53.7501C35.16 52.8801 36.7296 52.4173 38.3334 52.4173C39.9371 52.4173 41.5068 52.8801 42.854 53.7501C44.2013 54.6201 45.2689 55.8603 45.9287 57.322C46.5885 58.7837 46.8126 60.4048 46.5739 61.9907C46.3353 63.5765 45.6441 65.0599 44.5834 66.2627V71.1668H50.8334C51.9384 71.1668 52.9983 70.7278 53.7797 69.9464C54.5611 69.165 55 68.1052 55 67.0002V8.66683C55 7.56176 54.5611 6.50195 53.7797 5.72055C52.9983 4.93915 51.9384 4.50016 50.8334 4.50016H9.16671ZM40.4167 68.821C39.0502 69.1738 37.6165 69.1738 36.25 68.821V76.9252L38.3334 75.8835L40.4167 76.9252V68.821ZM38.3334 64.9168C39.4384 64.9168 40.4983 64.4778 41.2797 63.6964C42.0611 62.915 42.5 61.8552 42.5 60.7502C42.5 59.6451 42.0611 58.5853 41.2797 57.8039C40.4983 57.0225 39.4384 56.5835 38.3334 56.5835C37.2283 56.5835 36.1685 57.0225 35.3871 57.8039C34.6057 58.5853 34.1667 59.6451 34.1667 60.7502C34.1667 61.8552 34.6057 62.915 35.3871 63.6964C36.1685 64.4778 37.2283 64.9168 38.3334 64.9168Z" fill="#24262E"/>
<path d="M44.5834 75.3335V-77.6665H-108.417V75.3335H44.5834ZM44.5834 83.6668L-23.8403 220.514L197.583 331.226V83.6668H44.5834ZM38.3334 80.5418L106.757 -56.3055L38.3334 -90.5174L-30.0903 -56.3055L38.3334 80.5418ZM32.0834 83.6668H-120.917V331.226L100.507 220.514L32.0834 83.6668ZM32.0834 75.3335H185.083V-77.6665H32.0834V75.3335ZM0.833374 67.0002L-152.167 67.0002L0.833374 67.0002ZM9.16671 0.333496L9.16671 -152.667L9.16671 0.333496ZM50.8334 0.333496V-152.667V0.333496ZM9.16671 4.50016L9.16671 -148.5L9.16671 4.50016ZM32.0834 71.1668V224.167H185.083V71.1668H32.0834ZM32.0834 66.2627H185.083V8.43409L146.833 -34.9373L32.0834 66.2627ZM44.5834 66.2627L-70.1666 -34.9373L-108.417 8.43409V66.2627H44.5834ZM44.5834 71.1668H-108.417V224.167H44.5834V71.1668ZM50.8334 4.50016V-148.5V4.50016ZM40.4167 68.821H193.417V-128.701L2.16672 -79.3206L40.4167 68.821ZM36.25 68.821L74.5 -79.3206L-116.75 -128.701L-116.75 68.821H36.25ZM36.25 76.9252H-116.75V324.484L104.674 213.773L36.25 76.9252ZM38.3334 75.8835L106.757 -60.9639L38.3334 -95.1757L-30.0903 -60.9639L38.3334 75.8835ZM40.4167 76.9252L-28.007 213.773L193.417 324.484V76.9252H40.4167ZM41.2797 63.6964L149.467 171.884L41.2797 63.6964ZM35.3871 63.6964L-72.8002 171.884L35.3871 63.6964ZM-93.8333 67.0002C-93.8333 28.6321 -78.5916 -8.16444 -51.4614 -35.2946L164.913 181.08C195.169 150.824 212.167 109.789 212.167 67.0002H-93.8333ZM-51.4614 -35.2946C-24.3312 -62.4248 12.4653 -77.6665 50.8334 -77.6665V228.333C93.6217 228.333 134.657 211.336 164.913 181.08L-51.4614 -35.2946ZM50.8334 -77.6665H44.5834V228.333H50.8334V-77.6665ZM-108.417 75.3335V83.6668H197.583V75.3335H-108.417ZM113.007 -53.1805L106.757 -56.3055L-30.0903 217.389L-23.8403 220.514L113.007 -53.1805ZM-30.0903 -56.3055L-36.3403 -53.1805L100.507 220.514L106.757 217.389L-30.0903 -56.3055ZM185.083 83.6668V75.3335H-120.917V83.6668H185.083ZM32.0834 -77.6665H9.16671V228.333H32.0834V-77.6665ZM9.16671 -77.6665C47.5348 -77.6665 84.3313 -62.4248 111.461 -35.2946L-104.913 181.08C-74.6574 211.336 -33.6216 228.333 9.16671 228.333V-77.6665ZM111.461 -35.2946C138.592 -8.16438 153.833 28.6322 153.833 67.0002L-152.167 67.0002C-152.167 109.788 -135.169 150.824 -104.913 181.08L111.461 -35.2946ZM153.833 67.0002V8.66683H-152.167V67.0002H153.833ZM153.833 8.66683C153.833 47.0348 138.592 83.8313 111.461 110.962L-104.913 -105.413C-135.169 -75.1572 -152.167 -34.1214 -152.167 8.66683H153.833ZM111.461 110.962C84.3312 138.092 47.5347 153.333 9.16671 153.333L9.16671 -152.667C-33.6215 -152.667 -74.6573 -135.669 -104.913 -105.413L111.461 110.962ZM9.16671 153.333H50.8334V-152.667H9.16671V153.333ZM50.8334 153.333C12.4654 153.333 -24.3311 138.092 -51.4614 110.962L164.913 -105.413C134.657 -135.669 93.6216 -152.667 50.8334 -152.667L50.8334 153.333ZM-51.4614 110.962C-78.5916 83.8314 -93.8333 47.0349 -93.8333 8.66683H212.167C212.167 -34.1215 195.169 -75.1573 164.913 -105.413L-51.4614 110.962ZM-93.8333 8.66683V67.0002H212.167V8.66683H-93.8333ZM9.16671 -148.5C-32.5165 -148.5 -72.4924 -131.941 -101.967 -102.467L114.408 113.908C86.4961 141.82 48.6398 157.5 9.16671 157.5L9.16671 -148.5ZM-101.967 -102.467C-131.441 -72.9924 -148 -33.0164 -148 8.66683H158C158 48.14 142.319 85.9963 114.408 113.908L-101.967 -102.467ZM-148 8.66683V67.0002H158V8.66683H-148ZM-148 67.0002C-148 108.683 -131.441 148.659 -101.967 178.134L114.408 -38.2409C142.319 -10.3292 158 27.5271 158 67.0002H-148ZM-101.967 178.134C-72.4922 207.608 -32.5162 224.167 9.16671 224.167V-81.8332C48.6395 -81.8332 86.4959 -66.1528 114.408 -38.2409L-101.967 178.134ZM9.16671 224.167H32.0834V-81.8332H9.16671V224.167ZM185.083 71.1668V66.2627H-120.917V71.1668H185.083ZM146.833 -34.9373C165.248 -14.0568 177.247 11.6939 181.39 39.2247L-121.204 84.7566C-116.584 115.459 -103.203 144.176 -82.6666 167.463L146.833 -34.9373ZM181.39 39.2247C185.532 66.7554 181.643 94.8969 170.188 120.272L-108.712 -5.62796C-121.486 22.6706 -125.824 54.0541 -121.204 84.7566L181.39 39.2247ZM170.188 120.272C158.733 145.647 140.2 167.178 116.812 182.281L-49.1862 -74.7807C-75.2689 -57.9378 -95.9375 -33.9265 -108.712 -5.62796L170.188 120.272ZM116.812 182.281C93.4235 197.384 66.1742 205.417 38.3334 205.417V-100.583C7.28513 -100.583 -23.1036 -91.6236 -49.1862 -74.7807L116.812 182.281ZM38.3334 205.417C10.4926 205.417 -16.7568 197.384 -40.1449 182.281L125.853 -74.7807C99.7703 -91.6236 69.3816 -100.583 38.3334 -100.583V205.417ZM-40.1449 182.281C-63.5331 167.178 -82.0665 145.647 -93.5213 120.272L185.379 -5.62796C172.604 -33.9265 151.936 -57.9378 125.853 -74.7807L-40.1449 182.281ZM-93.5213 120.272C-104.976 94.8969 -108.865 66.7554 -104.723 39.2247L197.871 84.7566C202.491 54.0541 198.153 22.6706 185.379 -5.62796L-93.5213 120.272ZM-104.723 39.2247C-100.58 11.6939 -88.5816 -14.0568 -70.1666 -34.9373L159.333 167.463C179.87 144.176 193.251 115.459 197.871 84.7566L-104.723 39.2247ZM-108.417 66.2627V71.1668H197.583V66.2627H-108.417ZM44.5834 224.167H50.8334V-81.8332H44.5834V224.167ZM50.8334 224.167C92.5161 224.167 132.492 207.609 161.967 178.134L-54.4077 -38.2409C-26.4957 -66.1529 11.3608 -81.8332 50.8334 -81.8332V224.167ZM161.967 178.134C191.442 148.659 208 108.683 208 67.0002H-98C-98 27.5275 -82.3196 -10.3289 -54.4077 -38.2409L161.967 178.134ZM208 67.0002V8.66683H-98V67.0002H208ZM208 8.66683C208 -33.0161 191.442 -72.9921 161.967 -102.467L-54.4077 113.908C-82.3196 85.996 -98 48.1396 -98 8.66683H208ZM161.967 -102.467C132.492 -131.941 92.5164 -148.5 50.8334 -148.5L50.8334 157.5C11.3605 157.5 -26.4959 141.82 -54.4077 113.908L161.967 -102.467ZM50.8334 -148.5H9.16671V157.5H50.8334V-148.5ZM2.16672 -79.3206C25.8888 -85.4456 50.7779 -85.4456 74.5 -79.3206L-1.99995 216.963C24.4551 223.793 52.2116 223.793 78.6667 216.963L2.16672 -79.3206ZM-116.75 68.821V76.9252H189.25V68.821H-116.75ZM104.674 213.773L106.757 212.731L-30.0903 -60.9639L-32.1736 -59.9222L104.674 213.773ZM-30.0903 212.731L-28.007 213.773L108.84 -59.9222L106.757 -60.9639L-30.0903 212.731ZM193.417 76.9252V68.821H-112.583V76.9252H193.417ZM38.3334 217.917C80.0163 217.917 119.992 201.358 149.467 171.884L-66.9077 -44.4909C-38.9958 -72.4028 -1.1394 -88.0832 38.3334 -88.0832V217.917ZM149.467 171.884C178.941 142.409 195.5 102.433 195.5 60.7502H-110.5C-110.5 21.2771 -94.8194 -16.5792 -66.9077 -44.4909L149.467 171.884ZM195.5 60.7502C195.5 19.0669 178.941 -20.9091 149.467 -50.3835L-66.9077 165.991C-94.8193 138.08 -110.5 100.223 -110.5 60.7502H195.5ZM149.467 -50.3835C119.993 -79.8579 80.0167 -96.4165 38.3334 -96.4165V209.583C-1.13978 209.583 -38.9961 193.903 -66.9077 165.991L149.467 -50.3835ZM38.3334 -96.4165C-3.34992 -96.4165 -43.3258 -79.8579 -72.8002 -50.3835L143.574 165.991C115.663 193.903 77.8065 209.583 38.3334 209.583V-96.4165ZM-72.8002 -50.3835C-102.275 -20.9091 -118.833 19.0669 -118.833 60.7502H187.167C187.167 100.223 171.486 138.08 143.574 165.991L-72.8002 -50.3835ZM-118.833 60.7502C-118.833 102.433 -102.275 142.409 -72.8002 171.884L143.574 -44.4909C171.486 -16.5792 187.167 21.2771 187.167 60.7502H-118.833ZM-72.8002 171.884C-43.3256 201.358 -3.34954 217.917 38.3334 217.917V-88.0832C77.8062 -88.0832 115.663 -72.4028 143.574 -44.4909L-72.8002 171.884Z" fill="black" mask="url(#path-2-inside-1_559_2500)"/>
</svg>
