<svg width="100" height="100" viewBox="0 0 100 100" fill="none" xmlns="http://www.w3.org/2000/svg">
<path d="M37.5001 22.9166C37.5001 22.3641 37.7196 21.8341 38.1103 21.4434C38.501 21.0527 39.0309 20.8333 39.5834 20.8333H60.4167C60.9693 20.8333 61.4992 21.0527 61.8899 21.4434C62.2806 21.8341 62.5001 22.3641 62.5001 22.9166C62.5001 23.4691 62.2806 23.999 61.8899 24.3897C61.4992 24.7804 60.9693 24.9999 60.4167 24.9999H39.5834C39.0309 24.9999 38.501 24.7804 38.1103 24.3897C37.7196 23.999 37.5001 23.4691 37.5001 22.9166ZM31.2501 33.3333C30.6975 33.3333 30.1676 33.5527 29.7769 33.9434C29.3862 34.3341 29.1667 34.864 29.1667 35.4166C29.1667 35.9691 29.3862 36.499 29.7769 36.8897C30.1676 37.2804 30.6975 37.4999 31.2501 37.4999H68.7501C69.3026 37.4999 69.8325 37.2804 70.2232 36.8897C70.6139 36.499 70.8334 35.9691 70.8334 35.4166C70.8334 34.864 70.6139 34.3341 70.2232 33.9434C69.8325 33.5527 69.3026 33.3333 68.7501 33.3333H31.2501ZM29.1667 43.7499C29.1667 43.1974 29.3862 42.6675 29.7769 42.2768C30.1676 41.8861 30.6975 41.6666 31.2501 41.6666H68.7501C69.3026 41.6666 69.8325 41.8861 70.2232 42.2768C70.6139 42.6675 70.8334 43.1974 70.8334 43.7499C70.8334 44.3025 70.6139 44.8324 70.2232 45.2231C69.8325 45.6138 69.3026 45.8333 68.7501 45.8333H31.2501C30.6975 45.8333 30.1676 45.6138 29.7769 45.2231C29.3862 44.8324 29.1667 44.3025 29.1667 43.7499ZM31.2501 49.9999C30.6975 49.9999 30.1676 50.2194 29.7769 50.6101C29.3862 51.0008 29.1667 51.5307 29.1667 52.0833C29.1667 52.6358 29.3862 53.1657 29.7769 53.5564C30.1676 53.9471 30.6975 54.1666 31.2501 54.1666H68.7501C69.3026 54.1666 69.8325 53.9471 70.2232 53.5564C70.6139 53.1657 70.8334 52.6358 70.8334 52.0833C70.8334 51.5307 70.6139 51.0008 70.2232 50.6101C69.8325 50.2194 69.3026 49.9999 68.7501 49.9999H31.2501Z" fill="#24262E"/>
<path fill-rule="evenodd" clip-rule="evenodd" d="M79.1667 74.9999C79.1667 77.2101 78.2887 79.3297 76.7259 80.8925C75.1631 82.4553 73.0435 83.3333 70.8334 83.3333H64.5834V91.6666L58.3334 88.5416L52.0834 91.6666V83.3333H29.1667C26.9566 83.3333 24.837 82.4553 23.2742 80.8925C21.7113 79.3297 20.8334 77.2101 20.8334 74.9999V16.6666C20.8334 14.4564 21.7113 12.3368 23.2742 10.774C24.837 9.21123 26.9566 8.33325 29.1667 8.33325H70.8334C73.0435 8.33325 75.1631 9.21123 76.7259 10.774C78.2887 12.3368 79.1667 14.4564 79.1667 16.6666V74.9999ZM29.1667 12.4999C28.0616 12.4999 27.0018 12.9389 26.2204 13.7203C25.439 14.5017 25 15.5615 25 16.6666V74.9999C25 76.105 25.439 77.1648 26.2204 77.9462C27.0018 78.7276 28.0616 79.1666 29.1667 79.1666H52.0834V74.2624C51.0226 73.0596 50.3314 71.5763 50.0928 69.9904C49.8542 68.4045 50.0782 66.7835 50.7381 65.3218C51.3979 63.8601 52.4655 62.6198 53.8127 61.7498C55.16 60.8799 56.7296 60.4171 58.3334 60.4171C59.9371 60.4171 61.5068 60.8799 62.854 61.7498C64.2013 62.6198 65.2689 63.8601 65.9287 65.3218C66.5885 66.7835 66.8126 68.4045 66.5739 69.9904C66.3353 71.5763 65.6441 73.0596 64.5834 74.2624V79.1666H70.8334C71.9384 79.1666 72.9983 78.7276 73.7797 77.9462C74.5611 77.1648 75 76.105 75 74.9999V16.6666C75 15.5615 74.5611 14.5017 73.7797 13.7203C72.9983 12.9389 71.9384 12.4999 70.8334 12.4999H29.1667ZM60.4167 76.8207C59.0502 77.1736 57.6165 77.1736 56.25 76.8207V84.9249L58.3334 83.8832L60.4167 84.9249V76.8207ZM58.3334 72.9166C59.4384 72.9166 60.4983 72.4776 61.2797 71.6962C62.0611 70.9148 62.5 69.855 62.5 68.7499C62.5 67.6448 62.0611 66.585 61.2797 65.8036C60.4983 65.0222 59.4384 64.5832 58.3334 64.5832C57.2283 64.5832 56.1685 65.0222 55.3871 65.8036C54.6057 66.585 54.1667 67.6448 54.1667 68.7499C54.1667 69.855 54.6057 70.9148 55.3871 71.6962C56.1685 72.4776 57.2283 72.9166 58.3334 72.9166Z" fill="#24262E"/>
</svg>
