<svg width="35" height="35" viewBox="0 0 35 35" fill="none" xmlns="http://www.w3.org/2000/svg">
<path d="M17.4998 32.0834C17.1596 32.0834 16.8679 31.9861 16.6248 31.7917C16.3818 31.5972 16.1995 31.342 16.078 31.0261C15.6162 29.6649 15.0328 28.3889 14.328 27.1979C13.6474 26.007 12.6873 24.6094 11.4478 23.0052C10.2082 21.4011 9.19949 19.8698 8.42171 18.4115C7.66824 16.9531 7.2915 15.191 7.2915 13.125C7.2915 10.2813 8.27588 7.87502 10.2446 5.90627C12.2377 3.91321 14.6561 2.91669 17.4998 2.91669C20.3436 2.91669 22.7498 3.91321 24.7186 5.90627C26.7116 7.87502 27.7082 10.2813 27.7082 13.125C27.7082 15.3368 27.2828 17.184 26.4321 18.6667C25.6057 20.125 24.6457 21.5712 23.5519 23.0052C22.2394 24.7552 21.2429 26.2136 20.5623 27.3802C19.9061 28.5226 19.3592 29.7379 18.9217 31.0261C18.8002 31.3663 18.6057 31.6337 18.3384 31.8281C18.0953 31.9983 17.8158 32.0834 17.4998 32.0834ZM17.4998 16.7709C18.5207 16.7709 19.3835 16.4184 20.0884 15.7136C20.7932 15.0087 21.1457 14.1459 21.1457 13.125C21.1457 12.1042 20.7932 11.2413 20.0884 10.5365C19.3835 9.83162 18.5207 9.47919 17.4998 9.47919C16.479 9.47919 15.6162 9.83162 14.9113 10.5365C14.2064 11.2413 13.854 12.1042 13.854 13.125C13.854 14.1459 14.2064 15.0087 14.9113 15.7136C15.6162 16.4184 16.479 16.7709 17.4998 16.7709Z" fill="#FF5900"/>
</svg>
